/* XPM */
static char *_b7f1daffdf34c03d16831d716ed6b1ceLs4w2kv6r20ueFE[] = {
/* columns rows colors chars-per-pixel */
"15 15 63 1 ",
"  c #12120C",
". c #13120C",
"X c #13130E",
"o c #16160F",
"O c #161610",
"+ c #181711",
"@ c #181811",
"# c #191911",
"$ c #1B1812",
"% c #1C1B13",
"& c #1F1C15",
"* c #1D1C17",
"= c #1E1E16",
"- c #1E1F18",
"; c #201D16",
": c #211F17",
"> c #211F19",
", c #202016",
"< c #212017",
"1 c #23211A",
"2 c #242118",
"3 c #242319",
"4 c #26231B",
"5 c #25241B",
"6 c #24231C",
"7 c #24241C",
"8 c #27271F",
"9 c #2A261C",
"0 c #2A261D",
"q c #27291F",
"w c #29281F",
"e c #2E291F",
"r c #292820",
"t c #2A2820",
"y c #2A2A20",
"u c #2E2A20",
"i c #2D2C23",
"p c #2E2E24",
"a c #2F2E24",
"s c #312E23",
"d c #312E24",
"f c #312F26",
"g c #2F3024",
"h c #313025",
"j c #313126",
"k c #333327",
"l c #373125",
"z c #353227",
"x c #363327",
"c c #313028",
"v c #333228",
"b c #333329",
"n c #35342A",
"m c #36352C",
"M c #38362A",
"N c #3A382D",
"B c #3D3A2C",
"V c #3E3C2F",
"C c #3D3E32",
"Z c #403E31",
"A c #404135",
"S c #47473A",
"D c #525142",
/* pixels */
"841= ,#4f9m66O:",
"18,pq4u964y>4=1",
"89149rCpn19:9p=",
":f15##owusp:1uf",
"rf81$gO,4Mp48jp",
"=98=cg+r:+.px44",
"1-xsjx>54=ep:vp",
"OxMjZVM%pjp894O",
"=Nfs2nx1p9jM4 r",
"1nfjpCM5jwBj$*r",
"pCww+hA#vZljr>4",
"wxjn8 B1*frpy6u",
":N8nw1SgD9+4pu4",
"wwcuu,g1Av4fur4",
"5wper1 -Zf>4u+-"
};
