/* XPM */
static char *_33a29f79de84c0393c9ce0fe8650aa2kNf1OPF3ctNpS6Jq[] = {
/* columns rows colors chars-per-pixel */
"15 15 63 1 ",
"  c #CE7527",
". c #C97428",
"X c #C97729",
"o c #CC7829",
"O c #CC7A2B",
"+ c #CF7C2F",
"@ c #D27C2B",
"# c #D17E2E",
"$ c #D57F2C",
"% c #D47F2E",
"& c #D3812F",
"* c #D7802D",
"= c #D4822F",
"- c #CF8031",
"; c #D18031",
": c #D68332",
"> c #D38433",
", c #D78432",
"< c #D58536",
"1 c #D88230",
"2 c #D88430",
"3 c #DB8633",
"4 c #D98235",
"5 c #DA8434",
"6 c #DC8636",
"7 c #D98933",
"8 c #DE8C33",
"9 c #D88835",
"0 c #DB8834",
"q c #DA8936",
"w c #DB8B37",
"e c #DD8A37",
"r c #DD8C37",
"t c #DA8A38",
"y c #DA8B39",
"u c #D8893A",
"i c #DC8838",
"p c #DC8839",
"a c #DE8B3B",
"s c #DE8C38",
"d c #DA8C3C",
"f c #DE8D3C",
"g c #DE913A",
"h c #DF903F",
"j c #E08E3B",
"k c #E08F3C",
"l c #E0913B",
"z c #E2923F",
"x c #DE9040",
"c c #E08F40",
"v c #E09240",
"b c #E09443",
"n c #E19245",
"m c #E29544",
"M c #E39447",
"N c #E09747",
"B c #E39449",
"V c #E29749",
"C c #E19848",
"Z c #E49949",
"A c #E6994C",
"S c #E4984E",
"D c #E79D4F",
/* pixels */
"e=zv5,scfrgszxf",
">+;<txhetvgrtzt",
"fncnxmAmzs71##z",
"x:tVd,tny,t6e::",
"tOAs:99mymrvzsh",
"5dx<:&<Cy,2vids",
"cDd9rNZvs9xxVf<",
"sp1jv=zz->DDx-u",
":jverzh=v8elfez",
"9je3vv6jsVr%8Bf",
"#z=@ev%jjejesBc",
"s91e1eV=@erzs.n",
"2#6nBo==fs5pppj",
"p##o%ejO+x16cs1",
"sejzjj86h966p6p"
};
