/* XPM */
static char *_d6cf7846f5d46e2cd641858d2f921e9xQwQm2TbudwdFSjq[] = {
/* columns rows colors chars-per-pixel */
"15 15 52 1 ",
"  c #808080",
". c #000301",
"X c #020201",
"o c #051F12",
"O c #06230F",
"+ c #05240F",
"@ c #0A2310",
"# c #3E2422",
"$ c #451A1E",
"% c #4C1C23",
"& c #571E23",
"* c #541E24",
"= c #4D2424",
"- c #5B2126",
"; c #5E2226",
": c #5A2826",
"> c #632328",
", c #662129",
"< c #68212A",
"1 c #692429",
"2 c #6B252B",
"3 c #6F252A",
"4 c #71262A",
"5 c #72262F",
"6 c #7A282E",
"7 c #7B2933",
"8 c #255C39",
"9 c #7C4036",
"0 c #2B6A41",
"q c #862B32",
"w c #882F39",
"e c #52AF6D",
"r c #54B16E",
"t c #56B270",
"y c #56B571",
"u c #58B873",
"i c #5BBE78",
"p c #5CC079",
"a c #5DC37A",
"s c #60CA7E",
"d c #62CD80",
"f c #68D686",
"g c #68D988",
"h c #69DA88",
"j c #6EDE8B",
"k c #69E68E",
"l c #69E78F",
"z c #6AE68E",
"x c #6CE58E",
"c c #73E28D",
"v c #73E38E",
"b c #74E38E",
/* pixels */
"               ",
"       e       ",
"      0f       ",
"      y@       ",
"     =-329     ",
"    :64&2w     ",
"    7,<;>qO    ",
"    5*8tX%     ",
"    Or.zd%     ",
"     aOjv#     ",
"     slbx      ",
"     ihll      ",
"     udlc      ",
"      sgi      ",
"               "
};
