/* XPM */
static char *_fbaa800bf9641af8cd5e8e136a22ce0FBGbAn6pTpymfEZQ[] = {
/* columns rows colors chars-per-pixel */
"15 15 45 1 ",
"  c #808080",
". c #000100",
"X c #331918",
"o c #391B1A",
"O c #431A1D",
"+ c #4F1D22",
"@ c #541E24",
"# c #5A2023",
"$ c #5A2125",
"% c #5D2227",
"& c #5E2227",
"* c #602327",
"= c #642327",
"- c #622329",
"; c #632528",
": c #662429",
"> c #6A2529",
", c #69262A",
"< c #6E272C",
"1 c #74262E",
"2 c #77282E",
"3 c #7B292F",
"4 c #7A2B2E",
"5 c #762830",
"6 c #782932",
"7 c #7E2830",
"8 c #215837",
"9 c #2D6E44",
"0 c #3C7B4C",
"q c #3F7A4C",
"w c #823036",
"e c #8D3D3C",
"r c #A54742",
"t c #A34744",
"y c #B75E50",
"u c #57B672",
"i c #58B973",
"p c #5EC57A",
"a c #5FC67C",
"s c #60C97E",
"d c #69E78F",
"f c #6EE58E",
"g c #71E08C",
"h c #74E38E",
"j c #71E48E",
/* pixels */
"     .   .     ",
"      pgs      ",
"      jhh      ",
"     90oq      ",
"     w<&3X     ",
"     e;$16     ",
"     t*=:2     ",
"     y4&-6     ",
"     r,@,w     ",
"      +O@      ",
"      sdi      ",
"      ud9      ",
"      8f       ",
"       a       ",
"               "
};
