/* XPM */
static char *abb43122096b4ee0b29f29a7ba7c8149UQdWU2Cq3Ek1DbRp[] = {
/* columns rows colors chars-per-pixel */
"15 15 114 2 ",
"   c #808080",
".  c #0F120B",
"X  c #1C1510",
"o  c #1E1511",
"O  c #221612",
"+  c #231713",
"@  c #3B1519",
"#  c #3D1B1C",
"$  c #082D1C",
"%  c #092F1C",
"&  c #092E1D",
"*  c #082F1D",
"=  c #092F1D",
"-  c #0C3420",
";  c #43191E",
":  c #411C1D",
">  c #4A1F1F",
",  c #471C22",
"<  c #481E20",
"1  c #4A1E22",
"2  c #4F1D22",
"3  c #531F24",
"4  c #4E2023",
"5  c #4B2C27",
"6  c #562326",
"7  c #582024",
"8  c #592025",
"9  c #5D2325",
"0  c #5C2127",
"q  c #5D2226",
"w  c #5F2228",
"e  c #602026",
"r  c #612326",
"t  c #63232A",
"y  c #66212A",
"u  c #632429",
"i  c #62242A",
"p  c #642428",
"a  c #652428",
"s  c #662428",
"d  c #6A222A",
"f  c #69252A",
"g  c #6C252A",
"h  c #6C252C",
"j  c #6E242D",
"k  c #6E252D",
"l  c #6E262D",
"z  c #71262C",
"x  c #73272C",
"c  c #6D2F30",
"v  c #712730",
"b  c #762731",
"n  c #7E2730",
"m  c #7B2B33",
"M  c #7E2A34",
"N  c #7D2C34",
"B  c #134128",
"V  c #174129",
"C  c #285032",
"Z  c #35774A",
"A  c #387648",
"S  c #803032",
"D  c #8D3E3D",
"F  c #96343E",
"G  c #9B3B3B",
"H  c #9B393E",
"J  c #9C3B3C",
"K  c #97433C",
"L  c #9D5D4C",
"P  c #AE4445",
"I  c #AA4D48",
"U  c #A75E4D",
"Y  c #B2574C",
"T  c #B86D4F",
"R  c #B76152",
"E  c #B66453",
"W  c #BB6051",
"Q  c #B86655",
"!  c #B36E57",
"~  c #B66D57",
"^  c #B3765A",
"/  c #BD7858",
"(  c #3E8352",
")  c #408A56",
"_  c #438B57",
"`  c #438C58",
"'  c #49915D",
"]  c #54A96B",
"[  c #52AD6B",
"{  c #53AF6C",
"}  c #53AE6D",
"|  c #54B26F",
" . c #59BB75",
".. c #5ABC76",
"X. c #5EC47B",
"o. c #5FC77C",
"O. c #60C97D",
"+. c #62CD80",
"@. c #63D082",
"#. c #66D283",
"$. c #66D585",
"%. c #66D686",
"&. c #68D585",
"*. c #68D988",
"=. c #6FDE8B",
"-. c #69E68E",
";. c #69E78F",
":. c #6BE68E",
">. c #6CE58E",
",. c #6FE48E",
"<. c #73E28D",
"1. c #73E38E",
"2. c #74E38E",
"3. c #70E48E",
/* pixels */
"                              ",
"                              ",
"  = =             > :         ",
"  ..@.|       o z 3 e ; o     ",
"  O.;.O.V     l 9 h g s u     ",
"= &.:.$.Z   l p p 3 3 N N r   ",
"% 2.2.-.] + 1 x w @ J E P I   ",
"  =.2.;.@.' , t 3 J F W Y W   ",
"  #.3.-.2.$.+ h t l J L / Q   ",
"  ) -.3.2.3.{ # d m n ^ ~ U   ",
"  = 2.2.-.2...v y N 6 T ~ 4   ",
"    } ;.2.-.@.A , b c K D     ",
"      O.2.*.&.o.5 w l 9 V     ",
"        - ` { } ) C . ` ) (   ",
"                              "
};
