/* XPM */
static char *_9d8933f25044538e6d39450574411d62ky7qWGf5dfGgZ1M[] = {
/* columns rows colors chars-per-pixel */
"15 15 117 2 ",
"   c #808080",
".  c #000100",
"X  c #1E1515",
"o  c #1D1416",
"O  c #171D18",
"+  c #241617",
"@  c #092E1D",
"#  c #082F1D",
"$  c #43191E",
"%  c #421A1E",
"&  c #431E20",
"*  c #461D21",
"=  c #4B1B22",
"-  c #531C23",
";  c #521F23",
":  c #551D20",
">  c #561F25",
",  c #581F25",
"<  c #5A1E25",
"1  c #5B1F25",
"2  c #5B1F26",
"3  c #5C1F25",
"4  c #5D1F28",
"5  c #592025",
"6  c #5B2026",
"7  c #5E2126",
"8  c #5F2227",
"9  c #592128",
"0  c #622327",
"q  c #632327",
"w  c #642327",
"e  c #61212A",
"r  c #60232A",
"t  c #63232A",
"y  c #652029",
"u  c #642229",
"i  c #652329",
"p  c #662229",
"a  c #62242C",
"s  c #69212A",
"d  c #6A222A",
"f  c #6B232B",
"g  c #69252A",
"h  c #6A252B",
"j  c #6C252A",
"k  c #6C242B",
"l  c #6C252B",
"z  c #6C242C",
"x  c #6D242C",
"c  c #6E262C",
"v  c #6E262D",
"b  c #65292B",
"n  c #71262D",
"m  c #732A2F",
"M  c #79282E",
"N  c #7A292F",
"B  c #7B292F",
"V  c #782530",
"C  c #762831",
"Z  c #762832",
"A  c #7F2830",
"S  c #7E2930",
"D  c #15452A",
"F  c #215334",
"G  c #205434",
"H  c #2A613A",
"J  c #29613D",
"K  c #474434",
"L  c #3C6543",
"P  c #36794C",
"I  c #84292E",
"U  c #852833",
"Y  c #842A32",
"T  c #842934",
"R  c #882B33",
"E  c #8E2D34",
"W  c #932C33",
"Q  c #922D35",
"!  c #912E35",
"~  c #922E35",
"^  c #982E37",
"/  c #9C3E3F",
"(  c #A1303A",
")  c #408855",
"_  c #438D58",
"`  c #47945C",
"'  c #49985F",
"]  c #51AC6A",
"[  c #52AD6B",
"{  c #53AB6C",
"}  c #57B070",
"|  c #56B772",
" . c #5DC37A",
".. c #5FC77C",
"X. c #60C97E",
"o. c #61CC7F",
"O. c #62CD80",
"+. c #63CE80",
"@. c #62CE81",
"#. c #67D485",
"$. c #66D585",
"%. c #67D787",
"&. c #6CD987",
"*. c #6DDD8A",
"=. c #70DF8C",
"-. c #6BE58E",
";. c #69E78F",
":. c #6BE68E",
">. c #6CE58E",
",. c #6DE58E",
"<. c #6FE48E",
"1. c #72E18D",
"2. c #71E38E",
"3. c #73E38E",
"4. c #74E38E",
"5. c #70E48E",
"6. c #71E48E",
/* pixels */
"                              ",
"                          # . ",
"                          #   ",
"      7 7 j m &       G ` D   ",
"    Q M v M v ; /     O.4.X.  ",
"  * y Z S i h v h   G | 2.H   ",
"  v S Q n 0 d Y i i ' 6.2.=.# ",
"  M Y ( f 0 r 3 , a ..:.4.4.# ",
"o Q S Q f h Z 3 i { *.;.4.&.  ",
"o W I R f > , - b #.4.,.6.}   ",
"  ^ T 5 d , 3 : [ :.2.2.2.J   ",
"  r i 5 v , = K  .4.,.4.#.    ",
"      O $ $ 9 [ %.:.2.,.P     ",
"    ) [ L + [ o.O.O.O._       ",
"                              "
};
