/* XPM */
static char *e7360a442c16424bece01f90800101c091HgReHb1wIGX3o7[] = {
/* columns rows colors chars-per-pixel */
"15 15 49 1 ",
"  c #808080",
". c #2B2725",
"X c #2C2727",
"o c #36322F",
"O c #454241",
"+ c #464646",
"@ c #4A4645",
"# c #5D514A",
"$ c #58514C",
"% c #655548",
"& c #645B56",
"* c #6C6058",
"= c #6A635D",
"- c #6C645F",
"; c #786555",
": c #796756",
"> c #7B685A",
", c #6C6663",
"< c #6F6B68",
"1 c #7A6C63",
"2 c gray45",
"3 c gray46",
"4 c #7F7876",
"5 c #797979",
"6 c #84655D",
"7 c #837367",
"8 c #8F7966",
"9 c #8D756E",
"0 c #8F7A6D",
"q c #98756B",
"w c #96786F",
"e c #807B77",
"r c #837A77",
"t c #857F7E",
"y c #FF8F36",
"u c #9C8576",
"i c #B8977B",
"p c #EA934D",
"a c #C39B7C",
"s c #8F8A84",
"d c #898989",
"f c #928A87",
"g c #958C8A",
"h c #959385",
"j c #9F9C88",
"k c #A19692",
"l c #A69A97",
"z c #AAA19E",
"x c #CEC8A1",
/* pixels */
"               ",
"      6        ",
"   fp$&-4      ",
" qwdzX-qyd     ",
"  29a3Odz3     ",
"  -66qXX $     ",
"  $zltio @h    ",
"  gg5$-dee -   ",
"  .-j$=tkdx-   ",
"  $-,317 $$6   ",
"   $,:8<r<ffr  ",
"   u#:88 ,,,   ",
"   0*%:8  ,,   ",
"  -=>%:8 f,+s  ",
"               "
};
